PathFileType	4	(X/Y/Z)	C:/Users/opensim2020/Desktop/walking_exp_matlab/subject02_walking14_straight_02.trc	
DataRate	CameraRate	NumFrames	NumMarkers	Units	OrigDataRate	OrigDataStartFrame	OrigNumFrames	
100.00	100.00	8	41	mm	100.00	825	121	
Frame#	Time	LFHD			RFHD			LBHD			RBHD			C7			T10			CLAV			STRN			RBAK			LSHO			LUPA			LELB			LFRM			LWRA			LWRB			LFIN			RSHO			RUPA			RELB			RFRM			RWRA			RWRB			RFIN			LASI			RASI			LPSI			RPSI			LTHI			LKNE			LTIB			LANK			LHEE			LTOE			RTHI			RKNE			RTIB			RANK			RHEE			RTOE			*39			*40			
		X1	Y1	Z1	X2	Y2	Z2	X3	Y3	Z3	X4	Y4	Z4	X5	Y5	Z5	X6	Y6	Z6	X7	Y7	Z7	X8	Y8	Z8	X9	Y9	Z9	X10	Y10	Z10	X11	Y11	Z11	X12	Y12	Z12	X13	Y13	Z13	X14	Y14	Z14	X15	Y15	Z15	X16	Y16	Z16	X17	Y17	Z17	X18	Y18	Z18	X19	Y19	Z19	X20	Y20	Z20	X21	Y21	Z21	X22	Y22	Z22	X23	Y23	Z23	X24	Y24	Z24	X25	Y25	Z25	X26	Y26	Z26	X27	Y27	Z27	X28	Y28	Z28	X29	Y29	Z29	X30	Y30	Z30	X31	Y31	Z31	X32	Y32	Z32	X33	Y33	Z33	X34	Y34	Z34	X35	Y35	Z35	X36	Y36	Z36	X37	Y37	Z37	X38	Y38	Z38	X39	Y39	Z39	X40	Y40	Z40	X41	Y41	Z41	

16	0.150	-960.47321	446.53403	1718.32458	-1103.87512	459.08667	1706.28076	-944.64508	579.07373	1649.34045	-1085.14441	604.05432	1636.07214	-1004.65027	648.18109	1511.44202	-1011.43884	697.77399	1234.04480	-1013.86475	505.01434	1445.08398	-1036.11389	453.08789	1275.53870	-1065.19519	713.43311	1336.25000	-836.85358	552.05389	1481.57190	-749.08575	607.19727	1293.81421	-735.91852	654.82318	1164.29077	-706.89691	700.72491	1046.42566	-717.51837	706.54492	903.57855	-687.82990	746.12482	932.38074	-685.09015	767.06879	866.18695	-1195.12708	603.54718	1483.25549	-1307.91418	611.04932	1311.95251	-1372.00464	549.38458	1188.54810	-1396.29919	455.03928	1111.69055	-1382.30493	341.87473	1042.34692	-1416.74927	373.86298	1011.08276	-1424.32495	305.03201	995.58502	-912.98981	446.88663	977.06744	-1157.56445	492.57748	949.12091	-955.13812	668.04474	1021.16412	-1070.30603	692.81281	1015.56561	-867.77551	430.10645	675.00208	-915.28333	410.05798	479.68921	-911.87628	448.99628	289.92572	-953.70752	444.71329	72.14499	-998.31775	489.52893	45.40372	-974.64813	288.61542	36.03699	-1238.36560	625.33447	659.26526	-1237.38770	656.82501	460.00912	-1223.80103	813.59521	364.02634	-1173.21448	959.95184	248.63205	-1102.41968	998.80658	238.85727	-1208.59021	948.33563	87.36258	-1039.32947	551.48608	1792.18530	-3357.54761	2846.03442	1034.30359 
17	0.160	-961.13934	432.63019	1720.46216	-1104.23425	445.29279	1708.85852	-945.20270	565.61682	1652.09778	-1085.90198	590.38373	1638.92371	-1005.39648	634.51904	1514.10120	-1012.32397	684.26740	1236.63159	-1014.42542	491.74036	1447.62341	-1036.43262	439.78427	1277.98779	-1066.19141	700.06268	1339.08179	-837.31964	538.58716	1484.25916	-749.59894	591.05908	1295.19080	-736.35199	636.76990	1164.65906	-708.35919	679.12506	1045.30481	-721.04291	681.36853	902.15784	-690.07184	721.57629	929.57751	-687.98492	740.21838	862.65875	-1196.10657	589.66541	1485.28430	-1307.05701	598.89874	1312.47034	-1370.15649	538.94659	1188.05164	-1394.13965	445.93628	1109.30347	-1380.19653	333.80560	1038.18225	-1414.50439	366.48874	1007.42920	-1422.21655	298.00305	990.64478	-911.90057	434.29117	979.75659	-1157.29797	478.63467	951.64935	-955.47583	655.16730	1023.64667	-1070.07605	679.86530	1018.15155	-867.67395	419.42554	676.64545	-914.39581	405.29324	479.66357	-911.28467	447.68668	290.17453	-953.95721	444.53995	72.11742	-998.38495	489.59891	45.45782	-974.37305	288.76068	35.99672	-1238.55200	602.59839	660.29956	-1237.84766	629.34308	461.40591	-1222.85486	786.69415	366.71622	-1171.32275	933.49951	252.32106	-1100.52319	973.11884	241.07074	-1210.53064	919.79846	92.97642	-1039.35706	537.84320	1794.72192	-3357.40674	2846.19922	1034.24414 
18	0.170	-961.33197	419.21436	1723.09131	-1104.63635	431.53293	1711.41382	-945.72540	552.18152	1654.55835	-1086.62451	576.80933	1641.76172	-1006.26941	620.96405	1516.93970	-1013.24573	670.92957	1239.34753	-1015.03809	478.45303	1450.25610	-1036.86389	426.50476	1280.47852	-1067.32080	686.93738	1342.03979	-837.87482	525.26184	1487.14124	-750.41248	574.77411	1296.56604	-737.17877	618.24615	1165.12280	-709.88196	657.15582	1044.15906	-724.11511	655.58630	901.30072	-692.60974	695.87872	927.04865	-690.73254	712.20465	859.70673	-1197.07104	575.81567	1487.39941	-1306.77795	587.01599	1313.46411	-1367.87976	528.70740	1187.48828	-1391.87720	437.18793	1107.02100	-1377.96460	326.37115	1033.72302	-1412.23096	359.76157	1003.68091	-1419.83740	291.57980	985.14423	-911.32855	422.04233	982.64789	-1157.74719	465.14215	955.19427	-955.79175	642.41388	1026.42188	-1069.84143	667.16602	1021.25189	-867.25488	410.13892	677.90399	-913.20428	400.74365	479.68549	-910.25470	446.15451	290.72852	-953.74451	444.77859	72.22128	-998.43256	489.62701	45.53959	-973.96063	288.98441	35.95050	-1238.44751	580.07501	661.65704	-1238.13208	601.97797	463.17270	-1221.76343	759.48761	368.94479	-1169.70557	906.29272	254.81667	-1098.81128	946.24609	241.81749	-1212.38501	889.98712	97.36097	-1039.91443	523.94592	1797.45691	-3360.33252	2845.28369	1034.25098 
19	0.180	-961.96448	405.55035	1725.29297	-1105.25635	417.81598	1713.84473	-946.53699	538.72650	1657.08594	-1087.19324	563.27356	1644.55945	-1007.14838	607.60992	1519.78259	-1014.09491	657.60657	1242.08008	-1015.65997	465.64764	1452.62036	-1037.34607	413.31415	1283.03223	-1068.11682	673.54602	1344.74731	-838.52753	512.09485	1490.10461	-751.14099	558.15924	1298.01978	-737.66418	599.26526	1165.69922	-711.53796	634.41815	1043.10266	-727.81482	628.52582	900.80328	-695.13043	669.46307	924.94867	-693.27405	683.00067	857.04980	-1198.03247	562.02100	1489.62427	-1305.94971	574.84235	1314.38660	-1365.95984	518.66016	1187.40198	-1390.40259	428.90118	1104.99890	-1375.59985	319.48941	1029.06091	-1409.89612	353.66101	999.81122	-1417.50525	285.98441	979.50769	-911.04736	409.83502	985.75513	-1158.93860	451.80881	959.13336	-956.07300	629.63574	1029.24731	-1069.62085	654.25208	1024.37219	-866.49860	401.71799	678.88855	-911.74683	396.69760	479.67566	-908.97461	444.87021	291.21399	-953.52844	445.09473	72.23881	-998.32666	489.82669	45.58599	-973.29108	289.29636	35.90405	-1238.23584	558.09058	663.24945	-1237.91541	574.79614	465.09283	-1220.66504	732.02954	370.86987	-1168.28418	878.29315	255.90350	-1097.37708	918.39301	241.06880	-1213.99829	858.86676	100.01340	-1040.38293	510.24991	1800.12512	-3360.30835	2845.25073	1034.28577 
20	0.190	-962.72504	392.04498	1727.80237	-1105.78052	404.24271	1716.27332	-947.06158	525.61890	1659.96326	-1087.95654	549.94623	1647.26404	-1008.03455	594.27057	1522.37793	-1014.85431	644.38324	1244.74121	-1016.45520	452.21298	1455.33130	-1037.86548	400.12683	1285.56665	-1068.85229	660.26404	1347.28284	-839.24896	499.09653	1493.08081	-752.02448	541.75879	1299.59338	-738.50073	579.98932	1166.32739	-713.29089	611.22144	1042.39563	-731.53876	600.78345	900.33044	-697.94843	641.98779	922.95422	-695.81525	652.70575	854.73053	-1199.02246	548.45947	1492.00488	-1304.48706	562.93335	1315.39624	-1363.74756	508.71857	1187.18811	-1387.77258	420.80978	1102.67993	-1373.21082	313.16415	1024.16394	-1407.50012	348.12964	995.84796	-1414.85730	281.07928	973.67371	-911.15540	398.00424	988.80109	-1160.42810	438.89993	963.78802	-956.37988	616.88147	1032.00427	-1069.40161	640.97168	1027.25427	-865.30658	394.85632	679.33673	-910.35254	393.20514	479.64215	-907.45471	443.62708	291.56094	-953.33704	445.50955	72.23285	-998.23102	490.06638	45.63522	-972.32550	289.69284	35.99518	-1238.00488	536.64581	665.04376	-1237.70154	547.96698	467.20395	-1219.68677	704.29089	372.30215	-1167.28259	849.35742	255.54323	-1096.30042	889.55933	238.93590	-1215.30469	826.62061	101.28767	-1040.98560	496.58746	1802.75439	-3357.52319	2845.93555	1034.28699 
21	0.200	-963.11816	378.81204	1730.39807	-1106.38123	390.88391	1718.67920	-947.73352	512.33551	1662.65576	-1088.95068	536.60138	1650.01843	-1009.02399	581.00543	1524.93958	-1015.54779	631.11090	1247.27832	-1017.18475	439.32355	1457.72693	-1038.44116	386.96506	1287.99280	-1069.43835	646.97070	1349.58606	-840.07660	486.29446	1496.00867	-752.93494	525.25305	1301.27039	-739.42535	560.33398	1166.89148	-715.28387	587.15918	1041.40430	-735.38855	572.03876	900.10370	-700.80292	613.64777	921.22687	-698.42633	621.46124	852.74310	-1200.06165	535.05927	1494.30701	-1303.92822	551.12006	1316.77515	-1362.04919	498.94644	1187.44336	-1385.66724	413.05521	1100.50867	-1370.74463	307.29349	1019.14532	-1405.07886	343.14337	991.85889	-1412.24780	276.68958	967.34406	-911.37354	386.11664	991.77045	-1162.05310	426.05078	968.22650	-956.63867	604.11243	1034.56677	-1069.36340	627.62524	1030.04297	-864.44885	389.03818	679.45032	-909.02356	390.04370	479.52173	-906.28015	442.41162	291.70502	-953.12122	445.78073	72.17664	-998.08594	490.27200	45.63719	-971.71265	289.98547	35.99452	-1237.91528	515.76788	666.97760	-1237.29468	521.56104	469.53522	-1218.81873	676.30023	373.12152	-1166.62549	819.69080	253.73547	-1095.75818	860.24951	235.40930	-1216.26721	792.95081	101.16058	-1041.81287	482.96771	1805.29102	-3360.50024	2845.37036	1034.27234 
22	0.210	-963.65497	365.70575	1732.61145	-1107.13989	377.54132	1720.89722	-948.63684	499.23141	1664.78076	-1089.29395	523.34735	1652.16052	-1010.05585	567.88562	1527.30713	-1016.21918	617.96356	1249.64355	-1017.94147	426.26108	1460.13782	-1039.01111	373.75409	1290.38123	-1070.03406	633.91046	1351.79602	-840.91559	473.67084	1498.88171	-754.01660	508.58304	1302.87695	-740.41565	540.20538	1167.42834	-717.37537	562.80200	1040.80237	-738.89117	543.22925	900.77161	-703.77924	584.47223	919.68738	-701.00281	589.48004	851.28705	-1201.06287	521.74298	1496.46936	-1303.86230	539.35364	1318.33252	-1360.07642	489.21991	1187.44385	-1383.93457	405.65198	1098.45862	-1368.25659	302.11572	1014.01282	-1402.61499	338.60214	987.76355	-1409.42334	272.92795	960.91235	-911.65405	374.30405	994.41199	-1163.46631	413.24026	972.58417	-956.94586	591.47815	1036.88269	-1069.47937	614.11945	1032.62476	-863.67096	383.64560	679.34491	-907.80536	387.54016	479.45572	-905.36395	440.87357	291.69827	-952.96759	445.93323	72.13639	-998.02679	490.50049	45.70649	-971.24536	290.25156	36.02218	-1237.90198	495.53726	669.07214	-1236.82129	495.63348	472.11981	-1218.13135	648.17908	373.22195	-1166.23926	789.41730	250.66963	-1095.52966	830.48688	230.48846	-1217.01929	757.49347	100.00579	-1042.65332	469.59698	1807.64026	-3360.46948	2845.46802	1034.02075 
23	0.220	-964.86536	352.32477	1734.61121	-1107.87280	364.30701	1722.92407	-949.27826	486.26050	1667.38306	-1091.23804	510.31052	1654.85681	-1011.12390	554.58112	1529.41357	-1016.76202	604.70532	1251.81396	-1018.75348	412.96939	1462.56885	-1039.49292	360.55426	1292.58569	-1070.35522	620.61023	1353.52039	-841.75037	461.13342	1501.49133	-754.94830	492.02463	1304.69360	-741.54584	519.85962	1167.92273	-719.26959	537.26471	1040.19556	-743.14868	513.58704	900.99890	-706.78375	555.11108	918.60278	-703.63464	556.72034	850.30164	-1202.00244	508.70499	1498.61572	-1303.17761	527.66626	1319.59839	-1358.70374	479.57245	1187.78748	-1381.97449	398.41547	1096.26025	-1365.78406	297.18539	1008.80334	-1400.20349	334.45740	983.60303	-1406.52246	269.73083	954.44531	-911.83002	362.38873	996.74780	-1164.41467	400.39038	976.71063	-957.31561	578.98859	1039.04419	-1069.86572	600.65277	1034.96875	-863.22253	378.58658	679.07825	-906.99176	384.74771	479.08313	-904.79877	439.04523	291.46912	-952.93915	446.03079	72.12003	-998.01196	490.63538	45.81914	-971.00800	290.38269	36.02607	-1237.95874	475.65463	671.25861	-1236.15295	470.12970	474.71512	-1217.68530	620.14459	372.53870	-1166.12097	758.64618	246.28577	-1095.75720	800.18866	224.11688	-1217.73022	720.39801	97.97864	-1043.62903	456.33316	1809.86194	-3357.52905	2846.13232	1034.31714 
